<svg width="348.636962890625px" height="154.73955078125px" xmlns="http://www.w3.org/2000/svg" viewBox="75.6815185546875 -2.3697753906249943 348.636962890625 154.73955078125" style="background: rgba(0, 0, 0, 0);" preserveAspectRatio="xMidYMid"><defs><filter id="editing-offset"><feFlood flood-color="#f00" flood-opacity="0.5" result="c1"></feFlood><feFlood flood-color="#0f0" flood-opacity="0.5" result="c2"></feFlood><feFlood flood-color="#0000ff" flood-opacity="0.5" result="c3"></feFlood><feComposite operator="in" in="c1" in2="SourceAlpha" result="text-c1"></feComposite><feComposite operator="in" in="c2" in2="SourceAlpha" result="text-c2"></feComposite><feComposite operator="in" in="c3" in2="SourceAlpha" result="text-c3"></feComposite><feOffset in="text-c1" dx="-10" dy="0" result="text1"></feOffset><feOffset in="text-c2" dx="10" dy="0" result="text2"></feOffset><feOffset in="text-c3" dx="0" dy="0" result="text3"></feOffset><feMerge><feMergeNode in="text1"></feMergeNode><feMergeNode in="text2"></feMergeNode><feMergeNode in="text3"></feMergeNode></feMerge></filter></defs><g filter="url(#editing-offset)"><g transform="translate(81.8290662765503, 110.45656204223633)"><path d="M54.20-9.52L56.49-2.00L56.49-2.00Q51.95-0.59 46.90 0.29L46.90 0.29L46.90 0.29Q41.85 1.17 35.79 1.17L35.79 1.17L35.79 1.17Q20.85 1.17 13.23-7.76L13.23-7.76L13.23-7.76Q5.62-16.70 5.62-34.08L5.62-34.08L5.62-34.08Q5.62-52.54 13.23-61.91L13.23-61.91L13.23-61.91Q20.85-71.29 35.79-71.29L35.79-71.29L35.79-71.29Q41.46-71.29 45.97-70.31L45.97-70.31L45.97-70.31Q50.49-69.34 54.69-67.77L54.69-67.77L52.15-60.55L52.15-60.55Q50.15-61.28 48.19-61.87L48.19-61.87L48.19-61.87Q46.24-62.45 44.26-62.84L44.26-62.84L44.26-62.84Q42.29-63.23 40.19-63.43L40.19-63.43L40.19-63.43Q38.09-63.62 35.79-63.62L35.79-63.62L35.79-63.62Q30.37-63.62 26.46-61.69L26.46-61.69L26.46-61.69Q22.56-59.77 20.02-56.08L20.02-56.08L20.02-56.08Q17.48-52.39 16.26-47.09L16.26-47.09L16.26-47.09Q15.04-41.80 15.04-35.06L15.04-35.06L15.04-35.06Q15.04-28.13 16.26-22.80L16.26-22.80L16.26-22.80Q17.48-17.48 20.02-13.84L20.02-13.84L20.02-13.84Q22.56-10.21 26.46-8.35L26.46-8.35L26.46-8.35Q30.37-6.49 35.79-6.49L35.79-6.49L35.79-6.49Q40.77-6.49 45.26-7.32L45.26-7.32L45.26-7.32Q49.76-8.15 54.20-9.52L54.20-9.52ZM116.26-42.33L116.26-70.21L125.44-70.21L125.44 0L116.26 0L116.26-34.81L78.56-34.81L78.56 0L69.38 0L69.38-70.21L78.56-70.21L78.56-42.33L116.26-42.33ZM144.29 0L144.29-70.21L153.47-70.21L153.47 0L144.29 0ZM172.95 0L172.95-70.21L182.13-70.21L182.13-7.52L210.89-7.52L210.89 0L172.95 0ZM223.83 0L223.83-70.21L233.01-70.21L233.01-7.52L261.77-7.52L261.77 0L223.83 0ZM331.05 0L321.73 0L312.50-23.88L284.72-23.88L275.49 0L266.16 0L293.99-70.21L303.22-70.21L331.05 0ZM298.58-59.96L287.60-31.40L309.62-31.40L298.58-59.96Z"></path></g></g><style>text {
  font-size: 64px;
  font-family: Arial Black;
  dominant-baseline: central;
  text-anchor: middle;
}</style></svg>